<svg width="1680" height="940" viewBox="0 0 1680 940" fill="none" xmlns="http://www.w3.org/2000/svg">
  <g stroke="#2F343B" stroke-width="2.2" stroke-linecap="round" stroke-linejoin="round">
    <path d="M0 712C174 614 310 620 472 672C584 708 716 718 852 660C1006 594 1168 590 1350 640C1480 676 1580 690 1680 664" opacity="0.55"/>
    <path d="M0 760C176 682 320 680 468 720C612 758 748 752 892 700C1028 650 1208 650 1380 706C1498 744 1598 760 1680 744" opacity="0.35"/>
    <path d="M0 806C198 744 352 742 508 778C636 808 794 804 932 760C1082 714 1248 716 1408 764C1536 804 1612 818 1680 810" opacity="0.22"/>

    <path d="M0 838C240 830 496 816 728 790C948 766 1168 744 1404 728C1508 720 1598 716 1680 716" opacity="0.24"/>

    <path d="M106 588L302 618L322 592L126 562L106 588Z" opacity="0.9"/>
    <path d="M162 546L182 614" opacity="0.6"/>
    <path d="M216 556L236 620" opacity="0.6"/>
    <path d="M268 564L286 624" opacity="0.6"/>
    <path d="M124 562L154 504L348 536L322 592" opacity="0.9"/>
    <path d="M176 516L192 568" opacity="0.5"/>
    <path d="M226 524L242 576" opacity="0.5"/>
    <path d="M274 532L292 584" opacity="0.5"/>
    <path d="M322 538L336 588" opacity="0.5"/>

    <path d="M272 232L258 604" opacity="0.95"/>
    <path d="M272 232L154 274" opacity="0.95"/>
    <path d="M272 232L310 116" opacity="0.95"/>
    <path d="M272 232L354 334" opacity="0.95"/>
    <path d="M272 232L212 264" opacity="0.95"/>
    <circle cx="272" cy="232" r="12"/>

    <path d="M438 338L436 560" opacity="0.8"/>
    <path d="M438 338L354 372" opacity="0.8"/>
    <path d="M438 338L462 260" opacity="0.8"/>
    <path d="M438 338L490 396" opacity="0.8"/>
    <circle cx="438" cy="338" r="9"/>

    <path d="M594 430L594 564" opacity="0.72"/>
    <path d="M594 430L578 384" opacity="0.72"/>
    <path d="M594 430L576 466" opacity="0.72"/>
    <path d="M594 430L646 452" opacity="0.72"/>
    <circle cx="594" cy="430" r="6"/>

    <path d="M812 518H1316" opacity="0.25"/>
    <path d="M812 654H1316" opacity="0.25"/>

    <path d="M820 636C836 636 842 624 842 614V544L864 528V614C864 624 870 636 884 636" opacity="0.74"/>
    <path d="M842 544H900V636" opacity="0.74"/>
    <path d="M886 498V636" opacity="0.74"/>
    <path d="M920 614V516L944 504V614" opacity="0.74"/>
    <path d="M956 590V480L984 472V590" opacity="0.74"/>
    <path d="M1008 636V418L1034 408V636" opacity="0.96"/>
    <path d="M1048 636V462L1076 494V636" opacity="0.84"/>
    <path d="M1098 636V244L1116 224L1138 246V636" opacity="0.96"/>
    <path d="M1154 636V518L1178 518V636" opacity="0.8"/>
    <path d="M1188 636V430L1208 414V636" opacity="0.76"/>
    <path d="M1228 636V324L1258 302V636" opacity="0.88"/>
    <path d="M1272 636V448L1306 456V636" opacity="0.8"/>
    <path d="M1322 636V404L1344 404V636" opacity="0.72"/>
    <path d="M1116 224V176" opacity="0.6"/>
    <path d="M1228 302V258" opacity="0.6"/>

    <path d="M782 706C868 670 972 648 1096 644C1218 642 1314 656 1384 694" opacity="0.82"/>
    <path d="M798 734C878 700 980 676 1098 672C1216 668 1306 680 1368 714" opacity="0.5"/>

    <path d="M804 742C832 688 904 642 1028 626C1136 612 1262 626 1382 682" opacity="0.9"/>
    <path d="M916 706C954 676 1034 652 1120 650C1218 648 1308 670 1388 710" opacity="0.9"/>
    <path d="M850 742C860 668 912 620 1012 594C1096 572 1230 580 1382 646" opacity="0.9"/>

    <path d="M826 754C816 698 834 652 886 620C944 584 1030 568 1164 574C1280 580 1364 612 1424 666" opacity="0.95"/>
    <path d="M842 764C840 708 856 670 906 640C964 604 1048 592 1168 596C1284 602 1360 632 1410 680" opacity="0.7"/>

    <circle cx="854" cy="768" r="42" opacity="0.95"/>
    <circle cx="1192" cy="784" r="42" opacity="0.95"/>
    <path d="M854 768L882 786" opacity="0.72"/>
    <path d="M854 768L828 790" opacity="0.72"/>
    <path d="M1192 784L1220 804" opacity="0.72"/>
    <path d="M1192 784L1164 806" opacity="0.72"/>

    <path d="M1482 614H1568C1602 614 1626 642 1626 676V812H1468V632C1468 622 1472 614 1482 614Z" opacity="0.98"/>
    <path d="M1500 648H1540C1548 648 1554 654 1554 662V718C1554 726 1548 732 1540 732H1500C1492 732 1486 726 1486 718V662C1486 654 1492 648 1500 648Z" opacity="0.96"/>
    <path d="M1506 694L1524 664L1516 688H1536L1514 720L1522 696H1506Z" opacity="0.96"/>
    <path d="M1510 760C1510 752 1516 746 1524 746H1528C1536 746 1542 752 1542 760V780C1542 788 1536 794 1528 794H1524C1516 794 1510 788 1510 780V760Z" opacity="0.96"/>
    <path d="M1598 700C1608 700 1616 708 1616 718V760C1616 768 1612 776 1604 780L1592 786" opacity="0.96"/>
    <path d="M1592 786C1586 790 1582 796 1582 804V816" opacity="0.96"/>
    <path d="M1498 804C1420 808 1348 792 1274 744C1220 708 1160 688 1094 684C1026 680 942 692 850 724C790 744 734 756 664 756" opacity="0.38"/>

    <path d="M98 684V824" opacity="0.52"/>
    <path d="M452 682V824" opacity="0.34"/>
    <path d="M958 664V824" opacity="0.34"/>
    <path d="M1258 660V824" opacity="0.34"/>
    <path d="M1438 660V824" opacity="0.34"/>

    <path d="M0 676C48 660 90 660 136 676" opacity="0.34"/>
    <path d="M1446 286C1516 248 1592 214 1680 194" opacity="0.46"/>
    <path d="M1498 326C1562 288 1622 262 1680 248" opacity="0.34"/>
    <circle cx="84" cy="346" r="26" opacity="0.76"/>
    <path d="M96 334C84 338 80 350 88 358" opacity="0.76"/>
    <path d="M74 348C84 344 92 352 92 364" opacity="0.76"/>
    <circle cx="1402" cy="320" r="30" opacity="0.76"/>
    <path d="M1400 302L1388 328H1402L1392 348L1418 318H1404L1412 302" opacity="0.76"/>
  </g>
</svg>
